0
SECTION
2
HEADER
9
$INSUNITS
70
4
9
$ACADVER
1
AC1014
9
$HANDSEED
5
FFFF
0
ENDSEC
0
SECTION
2
TABLES
0
TABLE
2
VPORT
5
8
100
AcDbSymbolTable
0
ENDTAB
0
TABLE
2
LTYPE
5
5
100
AcDbSymbolTable
0
LTYPE
5
14
100
AcDbSymbolTableRecord
100
AcDbLinetypeTableRecord
2
BYBLOCK
70
0
0
LTYPE
5
15
100
AcDbSymbolTableRecord
100
AcDbLinetypeTableRecord
2
BYLAYER
70
0
0
ENDTAB
0
TABLE
2
LAYER
5
2
100
AcDbSymbolTable
70
2
0
LAYER
5
50
100
AcDbSymbolTableRecord
100
AcDbLayerTableRecord
2
0
70
0
6
CONTINUOUS
0
ENDTAB
0
TABLE
2
STYLE
5
3
100
AcDbSymbolTable
70
1
0
STYLE
5
11
100
AcDbSymbolTableRecord
100
AcDbTextStyleTableRecord
2
STANDARD
70
0
0
ENDTAB
0
TABLE
2
VIEW
5
6
100
AcDbSymbolTable
70
0
0
ENDTAB
0
TABLE
2
UCS
5
7
100
AcDbSymbolTable
70
0
0
ENDTAB
0
TABLE
2
APPID
5
9
100
AcDbSymbolTable
70
2
0
APPID
5
12
100
AcDbSymbolTableRecord
100
AcDbRegAppTableRecord
2
ACAD
70
0
0
ENDTAB
0
TABLE
2
DIMSTYLE
5
A
100
AcDbSymbolTable
70
1
0
ENDTAB
0
TABLE
2
BLOCK_RECORD
5
1
100
AcDbSymbolTable
70
1
0
BLOCK_RECORD
5
1F
100
AcDbSymbolTableRecord
100
AcDbBlockTableRecord
2
*MODEL_SPACE
0
BLOCK_RECORD
5
1B
100
AcDbSymbolTableRecord
100
AcDbBlockTableRecord
2
*PAPER_SPACE
0
ENDTAB
0
ENDSEC
0
SECTION
2
BLOCKS
0
BLOCK
5
20
100
AcDbEntity
100
AcDbBlockBegin
2
*MODEL_SPACE
0
ENDBLK
5
21
100
AcDbEntity
100
AcDbBlockEnd
0
BLOCK
5
1C
100
AcDbEntity
100
AcDbBlockBegin
2
*PAPER_SPACE
0
ENDBLK
5
1D
100
AcDbEntity
100
AcDbBlockEnd
0
ENDSEC
0
SECTION
2
ENTITIES
0
CIRCLE
5
100
100
AcDbEntity
8
0
100
AcDbCircle
10
-19
20
-9.9999999999999858
30
0
40
1.6000000000000003
210
0
220
-0
230
1
0
CIRCLE
5
101
100
AcDbEntity
8
0
100
AcDbCircle
10
19
20
-10
30
0
40
1.6000000000000003
210
0
220
-0
230
1
0
CIRCLE
5
102
100
AcDbEntity
8
0
100
AcDbCircle
10
7.5
20
8
30
0
40
1.6000000000000003
210
0
220
-0
230
1
0
CIRCLE
5
103
100
AcDbEntity
8
0
100
AcDbCircle
10
-7.5
20
-8
30
0
40
1.6000000000000003
210
0
220
-0
230
1
0
CIRCLE
5
104
100
AcDbEntity
8
0
100
AcDbCircle
10
-7.5
20
8
30
0
40
1.6000000000000003
210
0
220
-0
230
1
0
CIRCLE
5
105
100
AcDbEntity
8
0
100
AcDbCircle
10
7.5
20
-8
30
0
40
1.6000000000000003
210
0
220
-0
230
1
0
CIRCLE
5
106
100
AcDbEntity
8
0
100
AcDbCircle
10
19.000000000000007
20
10
30
0
40
1.6000000000000003
210
0
220
-0
230
1
0
CIRCLE
5
107
100
AcDbEntity
8
0
100
AcDbCircle
10
-18.999999999999993
20
10.000000000000014
30
0
40
1.6000000000000003
210
0
220
-0
230
1
0
CIRCLE
5
108
100
AcDbEntity
8
0
100
AcDbCircle
10
-54
20
-54
30
0
40
1.2645
210
0
220
-0
230
1
0
CIRCLE
5
109
100
AcDbEntity
8
0
100
AcDbCircle
10
54
20
54
30
0
40
1.2645
210
0
220
-0
230
1
0
CIRCLE
5
110
100
AcDbEntity
8
0
100
AcDbCircle
10
54
20
-54
30
0
40
1.2645
210
0
220
-0
230
1
0
CIRCLE
5
111
100
AcDbEntity
8
0
100
AcDbCircle
10
-54
20
54
30
0
40
1.2645
210
0
220
-0
230
1
0
LWPOLYLINE
5
112
100
AcDbEntity
8
0
100
AcDbPolyline
90
8
70
1
43
0.0
10
-24.999999999999982
20
-15.857864376269015
10
-24.999999999999982
20
15.857864376269033
42
0.19891236737965831
10
-26.464466094067248
20
19.393398282201776
10
-36.585786437626886
20
29.514718625761414
42
0.66817863791929966
10
-39.999999999999986
20
28.100505063388312
10
-39.999999999999986
20
-28.100505063388304
42
0.66817863791929955
10
-36.585786437626879
20
-29.5147186257614
10
-26.464466094067252
20
-19.393398282201758
42
0.19891236737965839
0
LWPOLYLINE
5
113
100
AcDbEntity
8
0
100
AcDbPolyline
90
8
70
1
43
0.0
10
36.585786437626851
20
29.514718625761418
10
26.464466094067262
20
19.393398282201822
42
0.1989123673796582
10
24.999999999999996
20
15.857864376269081
10
25.000000000000007
20
-15.857864376269045
42
0.19891236737965715
10
26.464466094067262
20
-19.393398282201773
10
36.585786437626886
20
-29.5147186257614
42
0.66817863791930365
10
40
20
-28.100505063388319
10
39.999999999999943
20
28.100505063388326
42
0.66817863791929955
0
ARC
5
114
100
AcDbEntity
8
0
100
AcDbCircle
10
54
20
54
30
0
40
5.0000000000000053
210
-0
220
0
230
1
100
AcDbArc
50
-45.000004473005802
51
134.99999999999986
0
LINE
5
115
100
AcDbEntity
8
0
100
AcDbLine
10
50.464466094067276
20
57.535533905932745
30
0
11
14.393398282201728
21
21.464466094067241
31
0
0
ARC
5
116
100
AcDbEntity
8
0
100
AcDbCircle
10
10.857864376268981
20
24.999999999999993
30
0
40
5
210
-0
220
0
230
1
100
AcDbArc
50
270.00000000000006
51
314.99999999999994
0
LINE
5
117
100
AcDbEntity
8
0
100
AcDbLine
10
10.857864376268985
20
19.999999999999993
30
0
11
-10.857864376269015
21
19.999999999999979
31
0
0
ARC
5
118
100
AcDbEntity
8
0
100
AcDbCircle
10
-10.857864376269017
20
24.999999999999982
30
0
40
5.0000000000000009
210
0
220
0
230
1
100
AcDbArc
50
225.00000000000003
51
270
0
LINE
5
119
100
AcDbEntity
8
0
100
AcDbLine
10
-14.393398282201755
20
21.464466094067241
30
0
11
-50.464466094067262
21
57.535533905932745
31
0
0
ARC
5
120
100
AcDbEntity
8
0
100
AcDbCircle
10
-54
20
54
30
0
40
5.0000000000000018
210
0
220
-0
230
1
100
AcDbArc
50
45.000000000000064
51
224.99999837519078
0
LINE
5
121
100
AcDbEntity
8
0
100
AcDbLine
10
-57.535534006194368
20
50.464466194328885
30
0
11
-49.464466094067241
21
42.393398282201758
31
0
0
ARC
5
122
100
AcDbEntity
8
0
100
AcDbCircle
10
-52.999999999999979
20
38.857864376269021
30
0
40
5
210
0
220
-0
230
1
100
AcDbArc
50
0
51
45
0
LINE
5
123
100
AcDbEntity
8
0
100
AcDbLine
10
-47.999999999999979
20
38.857864376269035
30
0
11
-47.999999999999979
21
-38.857864376269056
31
0
0
ARC
5
124
100
AcDbEntity
8
0
100
AcDbCircle
10
-52.999999999999979
20
-38.857864376269056
30
0
40
5.0000000000000018
210
-0
220
0
230
1
100
AcDbArc
50
-45.00000000000005
51
0
0
LINE
5
125
100
AcDbEntity
8
0
100
AcDbLine
10
-49.464466094067241
20
-42.393398282201801
30
0
11
-57.535534025488957
21
-50.464466213623488
31
0
0
ARC
5
126
100
AcDbEntity
8
0
100
AcDbCircle
10
-54
20
-54
30
0
40
4.9999999999999991
210
0
220
0
230
1
100
AcDbArc
50
135.00000193749153
51
314.99999999999994
0
LINE
5
127
100
AcDbEntity
8
0
100
AcDbLine
10
-50.464466094067262
20
-57.535533905932745
30
0
11
-14.393398282201764
21
-21.464466094067234
31
0
0
ARC
5
128
100
AcDbEntity
8
0
100
AcDbCircle
10
-10.857864376269033
20
-24.999999999999982
30
0
40
5
210
0
220
-0
230
1
100
AcDbArc
50
89.999999999999929
51
134.99999999999986
0
LINE
5
129
100
AcDbEntity
8
0
100
AcDbLine
10
-10.857864376269028
20
-19.999999999999982
30
0
11
10.857864376269045
21
-19.999999999999996
31
0
0
ARC
5
130
100
AcDbEntity
8
0
100
AcDbCircle
10
10.857864376269044
20
-24.999999999999993
30
0
40
5.0000000000000009
210
0
220
-0
230
1
100
AcDbArc
50
45.000000000000028
51
89.999999999999986
0
LINE
5
131
100
AcDbEntity
8
0
100
AcDbLine
10
14.393398282201781
20
-21.464466094067252
30
0
11
50.46446601515926
21
-57.535533827024743
31
0
0
ARC
5
132
100
AcDbEntity
8
0
100
AcDbCircle
10
54
20
-54
30
0
40
5.0000000000000036
210
0
220
0
230
1
100
AcDbArc
50
-135.00000127875884
51
44.99999999999995
0
LINE
5
133
100
AcDbEntity
8
0
100
AcDbLine
10
57.535533905932745
20
-50.464466094067262
30
0
11
49.464466094067248
21
-42.393398282201758
31
0
0
ARC
5
134
100
AcDbEntity
8
0
100
AcDbCircle
10
53.000000000000007
20
-38.857864376269035
30
0
40
5
210
0
220
0
230
1
100
AcDbArc
50
180
51
224.99999999999972
0
LINE
5
135
100
AcDbEntity
8
0
100
AcDbLine
10
48.000000000000007
20
-38.857864376269035
30
0
11
47.999999999999936
21
38.857864376269035
31
0
0
ARC
5
136
100
AcDbEntity
8
0
100
AcDbCircle
10
52.999999999999936
20
38.857864376269035
30
0
40
4.9999999999999964
210
0
220
0
230
1
100
AcDbArc
50
134.99999999999994
51
180
0
LINE
5
137
100
AcDbEntity
8
0
100
AcDbLine
10
49.464466094067205
20
42.393398282201773
30
0
11
57.53553362991827
21
50.464465818052808
31
0
0
ENDSEC
0
SECTION
2
OBJECTS
0
DICTIONARY
5
C
100
AcDbDictionary
3
ACAD_GROUP
350
D
3
ACAD_MLINESTYLE
350
17
0
DICTIONARY
5
D
100
AcDbDictionary
0
DICTIONARY
5
1A
330
C
100
AcDbDictionary
0
DICTIONARY
5
17
100
AcDbDictionary
0
ENDSEC
0
EOF
