0
SECTION
2
HEADER
9
$INSUNITS
70
4
9
$ACADVER
1
AC1014
9
$HANDSEED
5
FFFF
0
ENDSEC
0
SECTION
2
TABLES
0
TABLE
2
VPORT
5
8
100
AcDbSymbolTable
0
ENDTAB
0
TABLE
2
LTYPE
5
5
100
AcDbSymbolTable
0
LTYPE
5
14
100
AcDbSymbolTableRecord
100
AcDbLinetypeTableRecord
2
BYBLOCK
70
0
0
LTYPE
5
15
100
AcDbSymbolTableRecord
100
AcDbLinetypeTableRecord
2
BYLAYER
70
0
0
ENDTAB
0
TABLE
2
LAYER
5
2
100
AcDbSymbolTable
70
2
0
LAYER
5
50
100
AcDbSymbolTableRecord
100
AcDbLayerTableRecord
2
0
70
0
6
CONTINUOUS
0
ENDTAB
0
TABLE
2
STYLE
5
3
100
AcDbSymbolTable
70
1
0
STYLE
5
11
100
AcDbSymbolTableRecord
100
AcDbTextStyleTableRecord
2
STANDARD
70
0
0
ENDTAB
0
TABLE
2
VIEW
5
6
100
AcDbSymbolTable
70
0
0
ENDTAB
0
TABLE
2
UCS
5
7
100
AcDbSymbolTable
70
0
0
ENDTAB
0
TABLE
2
APPID
5
9
100
AcDbSymbolTable
70
2
0
APPID
5
12
100
AcDbSymbolTableRecord
100
AcDbRegAppTableRecord
2
ACAD
70
0
0
ENDTAB
0
TABLE
2
DIMSTYLE
5
A
100
AcDbSymbolTable
70
1
0
ENDTAB
0
TABLE
2
BLOCK_RECORD
5
1
100
AcDbSymbolTable
70
1
0
BLOCK_RECORD
5
1F
100
AcDbSymbolTableRecord
100
AcDbBlockTableRecord
2
*MODEL_SPACE
0
BLOCK_RECORD
5
1B
100
AcDbSymbolTableRecord
100
AcDbBlockTableRecord
2
*PAPER_SPACE
0
ENDTAB
0
ENDSEC
0
SECTION
2
BLOCKS
0
BLOCK
5
20
100
AcDbEntity
100
AcDbBlockBegin
2
*MODEL_SPACE
0
ENDBLK
5
21
100
AcDbEntity
100
AcDbBlockEnd
0
BLOCK
5
1C
100
AcDbEntity
100
AcDbBlockBegin
2
*PAPER_SPACE
0
ENDBLK
5
1D
100
AcDbEntity
100
AcDbBlockEnd
0
ENDSEC
0
SECTION
2
ENTITIES
0
CIRCLE
5
100
100
AcDbEntity
8
0
100
AcDbCircle
10
-19
20
-9.9999999999999858
30
0
40
1.6000000000000003
210
0
220
-0
230
1
0
CIRCLE
5
101
100
AcDbEntity
8
0
100
AcDbCircle
10
19
20
-10
30
0
40
1.6000000000000003
210
0
220
-0
230
1
0
CIRCLE
5
102
100
AcDbEntity
8
0
100
AcDbCircle
10
7.5
20
8
30
0
40
1.6000000000000003
210
0
220
-0
230
1
0
CIRCLE
5
103
100
AcDbEntity
8
0
100
AcDbCircle
10
-7.5
20
-8
30
0
40
1.6000000000000003
210
0
220
-0
230
1
0
CIRCLE
5
104
100
AcDbEntity
8
0
100
AcDbCircle
10
-7.5
20
8
30
0
40
1.6000000000000003
210
0
220
-0
230
1
0
CIRCLE
5
105
100
AcDbEntity
8
0
100
AcDbCircle
10
7.5
20
-8
30
0
40
1.6000000000000003
210
0
220
-0
230
1
0
CIRCLE
5
106
100
AcDbEntity
8
0
100
AcDbCircle
10
19.000000000000007
20
10
30
0
40
1.6000000000000003
210
0
220
-0
230
1
0
CIRCLE
5
107
100
AcDbEntity
8
0
100
AcDbCircle
10
-18.999999999999993
20
10.000000000000014
30
0
40
1.6000000000000003
210
0
220
-0
230
1
0
CIRCLE
5
108
100
AcDbEntity
8
0
100
AcDbCircle
10
-54
20
-54
30
0
40
1.2645
210
0
220
-0
230
1
0
CIRCLE
5
109
100
AcDbEntity
8
0
100
AcDbCircle
10
54
20
54
30
0
40
1.2645
210
0
220
-0
230
1
0
CIRCLE
5
110
100
AcDbEntity
8
0
100
AcDbCircle
10
54
20
-54
30
0
40
1.2645
210
0
220
-0
230
1
0
CIRCLE
5
111
100
AcDbEntity
8
0
100
AcDbCircle
10
-54
20
54
30
0
40
1.2645
210
0
220
-0
230
1
0
LWPOLYLINE
5
112
100
AcDbEntity
8
0
100
AcDbPolyline
90
8
70
1
43
0.0
10
-24.999999999999982
20
-15.857864376269015
10
-24.999999999999982
20
15.857864376269033
42
0.19891236737965831
10
-26.464466094067248
20
19.393398282201776
10
-36.585786437626886
20
29.514718625761414
42
0.66817863791929966
10
-39.999999999999986
20
28.100505063388312
10
-39.999999999999986
20
-28.100505063388304
42
0.66817863791929955
10
-36.585786437626879
20
-29.5147186257614
10
-26.464466094067252
20
-19.393398282201758
42
0.19891236737965839
0
LWPOLYLINE
5
113
100
AcDbEntity
8
0
100
AcDbPolyline
90
8
70
1
43
0.0
10
36.585786437626851
20
29.514718625761418
10
26.464466094067262
20
19.393398282201822
42
0.1989123673796582
10
24.999999999999996
20
15.857864376269081
10
25.000000000000007
20
-15.857864376269045
42
0.19891236737965715
10
26.464466094067262
20
-19.393398282201773
10
36.585786437626886
20
-29.5147186257614
42
0.66817863791930365
10
40
20
-28.100505063388319
10
39.999999999999943
20
28.100505063388326
42
0.66817863791929955
0
LWPOLYLINE
5
114
100
AcDbEntity
8
0
100
AcDbPolyline
90
28
70
1
43
0.0
10
-57.535534006194354
20
50.464466194328878
42
-1.073589932960288
10
-49.999999999999964
20
56.999999999999957
10
-49.999999999999986
20
57.071067811865476
10
-14.393398282201755
20
21.464466094067241
42
0.19891236737965803
10
-10.857864376269015
20
19.999999999999979
10
10.857864376268997
20
19.999999999999993
42
0.19891236737965823
10
14.393398282201737
20
21.464466094067262
10
49.999999999999922
20
57.071067811865468
10
49.999999999999915
20
56.999999999999893
42
-1.0735899902338346
10
57.53553362991827
20
50.464465818052808
10
51.464466094067198
20
44.39339828220178
42
0.19891236737965801
10
49.999999999999936
20
40.857864376269042
10
50.000000000000007
20
-40.857864376269042
42
0.19891236737965592
10
51.464466094067241
20
-44.393398282201758
10
57.535533905932745
20
-50.464466094067276
42
-1.0735899482212465
10
50.000000000000014
20
-57.000000000000021
10
50.000000000000028
20
-57.071067811865497
10
14.393398282201781
20
-21.464466094067252
42
0.19891236737965781
10
10.857864376269045
20
-19.999999999999996
10
-10.857864376269028
20
-19.999999999999982
42
0.19891236737965759
10
-14.393398282201764
20
-21.464466094067234
10
-49.999999999999986
20
-57.071067811865476
10
-49.999999999999986
20
-56.999999999999972
42
-1.0735899300234251
10
-57.535534025488957
20
-50.464466213623488
10
-51.464466094067248
20
-44.393398282201787
42
0.19891236737965787
10
-49.999999999999986
20
-40.857864376269063
10
-49.999999999999986
20
40.857864376269021
42
0.19891236737965831
10
-51.464466094067241
20
44.393398282201773
0
ENDSEC
0
SECTION
2
OBJECTS
0
DICTIONARY
5
C
100
AcDbDictionary
3
ACAD_GROUP
350
D
3
ACAD_MLINESTYLE
350
17
0
DICTIONARY
5
D
100
AcDbDictionary
0
DICTIONARY
5
1A
330
C
100
AcDbDictionary
0
DICTIONARY
5
17
100
AcDbDictionary
0
ENDSEC
0
EOF
